# xmcd CD database file
#
# Track frame offsets:
#	150
#	20872
#	39015
#	57594
#	77600
#	95640
#	112572
#	135604
#	148109
#	176750
#	196568
#	209658
#	230715
#
# Disc length: 3324 seconds
#
# Revision: 0
# Processed by: cddbd v1.5.2PL0 Copyright (c) Steve Scherf et al.
# Submitted via: CDex 1.70beta3
#
DISCID=b20cfa0d
DTITLE=妹尾 美里 - La Blanche
DYEAR=2015
DGENRE=Jazz
TTITLE0=Chatora
TTITLE1=u
TTITLE2=Bonbori
TTITLE3=Utango
TTITLE4=Topaz
TTITLE5=Partire
TTITLE6=Pavo
TTITLE7=Franc
TTITLE8=Sommeiller
TTITLE9=Babel
TTITLE10=Neige
TTITLE11=La Blanche
TTITLE12=Toma
EXTD=YEAR: 2015
EXTT0=
EXTT1=
EXTT2=
EXTT3=
EXTT4=
EXTT5=
EXTT6=
EXTT7=
EXTT8=
EXTT9=
EXTT10=
EXTT11=
EXTT12=
PLAYORDER=
